<?xml version="1.0" encoding="UTF-8" standalone="no"?>
<svg width="300px" height="300px" viewBox="0 0 300 300" version="1.1" xmlns="http://www.w3.org/2000/svg" xmlns:xlink="http://www.w3.org/1999/xlink">
    <!-- Generator: Sketch 3.6.1 (26313) - http://www.bohemiancoding.com/sketch -->
    <title>QuantiModo Dark Blue Logo</title>
    <desc>Created with Sketch.</desc>
    <defs></defs>
    <g id="Logo" stroke="none" stroke-width="1" fill="none" fill-rule="evenodd">
        <g id="QuantiModo-Dark-Blue-Logo">
            <path d="M155.990206,97.455651 L179.088163,110.821142 C179.81841,111.243752 180.271786,112.023692 180.271786,112.865478 L180.271786,129.034629 C180.271786,130.85907 182.244492,132.006647 183.833039,131.089273 C193.173971,125.694975 218.303469,111.181907 227.602871,105.828839 C229.184496,104.918336 229.156809,102.667849 227.578645,101.757346 L161.967157,63.8014141 C160.119044,62.732862 157.838319,62.732862 155.990206,63.8014141 C154.138632,64.873402 153,66.8490208 153,68.986125 L153,92.2709401 C153,94.4114801 154.138632,96.387099 155.990206,97.455651" id="Fill-3" fill="#FFFFFF"></path>
            <path d="M143.832745,63.8014141 C141.981171,62.732862 139.703907,62.732862 137.852333,63.8014141 L72.1785492,101.795141 C70.628072,102.688464 70.596924,104.894285 72.1474012,105.787609 C81.4156555,111.123497 106.749345,125.753384 116.05913,131.130503 C117.616529,132.030698 119.551165,130.900301 119.551165,129.110218 L119.551165,112.837991 C119.551165,112.013385 119.990697,111.250624 120.710562,110.834885 L142.652583,98.1393869 C145.234404,96.6447884 146.822951,93.902973 146.822951,90.9378269 L146.822951,68.986125 C146.822951,66.8490208 145.684319,64.873402 143.832745,63.8014141" id="Fill-4" fill="#FFFFFF"></path>
            <path d="M238.359307,111.801414 C236.511193,110.732862 234.230469,110.732862 232.382356,111.801414 L155.990206,155.986558 C154.138632,157.061982 153,159.037601 153,161.178141 L153,184.476699 C153,186.61724 154.138632,188.592858 155.990206,189.664846 C157.824476,190.723091 160.070591,190.726527 161.915244,189.688897 C161.929087,189.67859 161.949853,189.671718 161.967157,189.66141 L187.100116,175.113984 L187.100116,229.12912 C187.100116,231.266225 188.238747,233.245279 190.090322,234.313831 C191.014378,234.84639 192.045722,235.117822 193.077067,235.117822 C194.108411,235.117822 195.139755,234.84639 196.067273,234.313831 L211.090981,225.624545 C212.939095,224.552557 214.077726,222.576938 214.077726,220.439834 L214.077726,159.504878 L238.359307,145.459087 C240.210881,144.387099 241.349513,142.408044 241.349513,140.27094 L241.349513,116.986125 C241.349513,114.845585 240.210881,112.869966 238.359307,111.801414" id="Fill-2" fill="#FFFFFF"></path>
            <path d="M141.359307,155.986558 L64.9636963,111.801414 C63.1155828,110.732862 60.8383194,110.732862 58.9867451,111.801414 C57.1386317,112.869966 56,114.845585 56,116.986125 L56,140.27094 C56,142.408044 57.1386317,144.387099 58.9867451,145.459087 L83.2683254,159.504878 L83.2683254,220.439834 C83.2683254,222.576938 84.4069571,224.552557 86.2585314,225.624545 L101.278779,234.313831 C102.209758,234.84639 103.241102,235.117822 104.268985,235.117822 C105.300329,235.117822 106.331674,234.84639 107.259191,234.313831 C109.107305,233.245279 110.245936,231.266225 110.245936,229.12912 L110.245936,175.113984 L135.378895,189.66141 C135.39966,189.671718 135.416964,189.67859 135.434269,189.688897 C137.275461,190.726527 139.521576,190.723091 141.359307,189.664846 C143.20742,188.592858 144.349513,186.61724 144.349513,184.476699 L144.349513,161.178141 C144.349513,159.037601 143.20742,157.061982 141.359307,155.986558" id="Fill-5" fill="#FFFFFF"></path>
            <circle id="Oval-3" fill="#FFFFFF" cx="150" cy="150" r="130"></circle>
            <path d="M149.512192,10 C71.3584507,10 8,72.8968313 8,150.488831 C8,228.077394 71.3584507,290.974225 149.512192,290.974225 C227.665932,290.974225 291.024383,228.077394 291.024383,150.488831 C291.024383,72.8968313 227.665932,10 149.512192,10 L149.512192,10 Z M145.089179,185.761357 C145.089179,187.898461 143.950547,189.87408 142.102433,190.942632 C140.268164,192.000877 138.022048,192.007748 136.184317,190.966683 C136.167013,190.959811 136.146248,190.949504 136.128943,190.939196 L111.01675,176.408949 L111.01675,230.372548 C111.01675,232.509652 109.881579,234.488707 108.033466,235.557259 C107.109409,236.086381 106.078065,236.357814 105.046721,236.357814 C104.018837,236.357814 102.987493,236.086381 102.059976,235.557259 L87.0501105,226.871408 C85.2019971,225.802856 84.0633654,223.827237 84.0633654,221.693568 L84.0633654,160.81015 L59.8025504,146.778103 C57.954437,145.706115 56.8192662,143.730496 56.8192662,141.593392 L56.8192662,118.329192 C56.8192662,116.192088 57.954437,114.219905 59.8025504,113.151353 C61.6541247,112.079365 63.9279272,112.079365 65.7760407,113.151353 L142.102433,157.295267 C143.950547,158.370691 145.089179,160.34631 145.089179,162.483414 L145.089179,185.761357 L145.089179,185.761357 Z M146.380089,92.5293285 C146.380089,95.4944746 144.795003,98.2328541 142.216643,99.7274527 L119.132529,113.082636 L119.132529,130.670797 C119.132529,132.460879 117.201354,133.587841 115.643955,132.691082 C106.344553,127.317399 81.0316287,112.69782 71.7737571,107.368803 C70.2232799,106.475479 70.2544279,104.273094 71.8014442,103.379771 L137.419854,65.4204025 C139.267967,64.3518504 141.545231,64.3518504 143.393344,65.4204025 C145.241458,66.4889546 146.380089,68.4645734 146.380089,70.6016776 L146.380089,92.5293285 L146.380089,92.5293285 Z M153.931744,70.6016776 C153.931744,68.4645734 155.070375,66.4889546 156.92195,65.4204025 C158.766602,64.3518504 161.043866,64.3518504 162.891979,65.4204025 L228.47578,103.35572 C230.040101,104.262786 230.067788,106.489223 228.500006,107.389418 C219.235213,112.725307 194.081489,127.252118 184.737095,132.649852 C183.152009,133.56379 181.179304,132.419649 181.179304,130.595208 L181.179304,113.316274 C181.179304,113.171968 181.103164,113.034534 180.975112,112.962381 L156.92195,99.0471526 C155.070375,97.9751647 153.931744,95.9995459 153.931744,93.8624417 L153.931744,70.6016776 L153.931744,70.6016776 Z M242.205117,141.593392 C242.205117,143.730496 241.069946,145.706115 239.218372,146.778103 L214.957557,160.81015 L214.957557,221.693568 C214.957557,223.827237 213.822386,225.802856 211.974273,226.871408 L196.960947,235.557259 C196.03689,236.086381 195.005546,236.357814 193.974202,236.357814 C192.942857,236.357814 191.914974,236.086381 190.990917,235.557259 C189.139343,234.488707 188.004172,232.509652 188.004172,230.372548 L188.004172,176.408949 L162.891979,190.939196 C162.874675,190.949504 162.85737,190.959811 162.840066,190.966683 C160.998874,192.007748 158.752759,192.000877 156.92195,190.942632 C155.070375,189.87408 153.931744,187.898461 153.931744,185.761357 L153.931744,162.483414 C153.931744,160.34631 155.070375,158.370691 156.92195,157.295267 L233.244882,113.151353 C235.092995,112.079365 237.370258,112.079365 239.218372,113.151353 C241.069946,114.219905 242.205117,116.192088 242.205117,118.329192 L242.205117,141.593392 L242.205117,141.593392 Z" id="Fill-6" fill="#2D88F3"></path>
        </g>
    </g>
</svg>